<?xml version="1.0" standalone="no"?>
<!DOCTYPE svg PUBLIC "-//W3C//DTD SVG 20010904//EN"
 "http://www.w3.org/TR/2001/REC-SVG-20010904/DTD/svg10.dtd">
<svg version="1.0" xmlns="http://www.w3.org/2000/svg"
 width="260.000000pt" height="260.000000pt" viewBox="0 0 260.000000 260.000000"
 preserveAspectRatio="xMidYMid meet">
<metadata>
Created by potrace 1.11, written by Peter Selinger 2001-2013
</metadata>
<g transform="translate(0.000000,260.000000) scale(0.100000,-0.100000)"
fill="#000000" stroke="none">
<path d="M0 1300 l0 -1300 1300 0 1300 0 0 1300 0 1300 -712 0 -713 0 0 -448
c0 -396 -2 -454 -18 -511 -37 -134 -105 -217 -225 -274 -65 -31 -71 -32 -207
-32 -182 0 -240 19 -331 109 -64 64 -95 127 -115 230 -5 27 -9 246 -9 487 l0
439 -135 0 -135 0 0 -1300z m1923 930 c216 -31 357 -212 357 -455 0 -190 -86
-336 -238 -408 -63 -30 -74 -32 -177 -32 -101 0 -114 2 -163 28 -30 16 -74 48
-98 72 l-44 44 0 -244 0 -245 -60 0 -60 0 0 610 0 610 60 0 60 0 0 -61 0 -61
50 45 c60 54 122 86 187 97 27 4 50 8 53 9 3 0 36 -4 73 -9z"/>
<path d="M1780 2111 c-149 -46 -241 -220 -210 -397 30 -178 155 -284 316 -271
128 10 225 99 260 237 29 116 3 253 -65 339 -47 59 -138 101 -215 100 -34 0
-72 -4 -86 -8z"/>
<path d="M402 2153 c4 -389 6 -455 21 -500 26 -78 72 -133 142 -168 54 -27 69
-30 155 -30 84 0 102 3 152 28 65 32 110 83 142 160 20 50 21 68 24 505 l3
452 -321 0 -321 0 3 -447z"/>
</g>
</svg>
